<svg width="386" height="371" viewBox="0 0 386 371" fill="none" xmlns="http://www.w3.org/2000/svg">
<ellipse cx="359.024" cy="272.484" rx="24.5451" ry="24.5377" fill="url(#paint0_linear_1010_1880)"/>
<g filter="url(#filter0_b_1010_1880)">
<path d="M345.475 185.51C345.475 265.346 280.733 330.087 200.843 330.087C120.954 330.087 56.2109 265.346 56.2109 185.51C56.2109 105.675 120.954 40.9341 200.843 40.9341C280.733 40.9341 345.475 105.675 345.475 185.51Z" stroke="url(#paint1_radial_1010_1880)" stroke-width="80"/>
</g>
<ellipse cx="35.4138" cy="137.867" rx="34.4314" ry="34.421" fill="url(#paint2_linear_1010_1880)"/>
<g filter="url(#filter1_b_1010_1880)">
<path d="M320.343 184.763C320.343 250.728 266.85 304.218 200.843 304.218C134.837 304.218 81.3438 250.728 81.3438 184.763C81.3438 118.799 134.837 65.3086 200.843 65.3086C266.85 65.3086 320.343 118.799 320.343 184.763Z" stroke="url(#paint3_radial_1010_1880)" stroke-opacity="0.49" stroke-width="60"/>
</g>
<path d="M266.444 184.762C266.444 228.693 230.817 264.326 186.844 264.326C142.871 264.326 107.244 228.693 107.244 184.762C107.244 140.832 142.871 105.199 186.844 105.199C230.817 105.199 266.444 140.832 266.444 184.762Z" stroke="url(#paint4_radial_1010_1880)" stroke-width="80"/>
<ellipse cx="285.707" cy="30.5144" rx="8.86352" ry="8.86084" fill="url(#paint5_linear_1010_1880)"/>
<defs>
<filter id="filter0_b_1010_1880" x="6.21094" y="-9.06592" width="389.264" height="389.153" filterUnits="userSpaceOnUse" color-interpolation-filters="sRGB">
<feFlood flood-opacity="0" result="BackgroundImageFix"/>
<feGaussianBlur in="BackgroundImageFix" stdDeviation="5"/>
<feComposite in2="SourceAlpha" operator="in" result="effect1_backgroundBlur_1010_1880"/>
<feBlend mode="normal" in="SourceGraphic" in2="effect1_backgroundBlur_1010_1880" result="shape"/>
</filter>
<filter id="filter1_b_1010_1880" x="41.3438" y="25.3086" width="319" height="318.909" filterUnits="userSpaceOnUse" color-interpolation-filters="sRGB">
<feFlood flood-opacity="0" result="BackgroundImageFix"/>
<feGaussianBlur in="BackgroundImageFix" stdDeviation="5"/>
<feComposite in2="SourceAlpha" operator="in" result="effect1_backgroundBlur_1010_1880"/>
<feBlend mode="normal" in="SourceGraphic" in2="effect1_backgroundBlur_1010_1880" result="shape"/>
</filter>
<linearGradient id="paint0_linear_1010_1880" x1="383.569" y1="297.021" x2="334.493" y2="247.931" gradientUnits="userSpaceOnUse">
<stop stop-color="#42A7C3"/>
<stop offset="0.750282" stop-color="#8ADBF0"/>
</linearGradient>
<radialGradient id="paint1_radial_1010_1880" cx="0" cy="0" r="1" gradientUnits="userSpaceOnUse" gradientTransform="translate(195.65 193.586) rotate(88.7893) scale(245.772 245.846)">
<stop offset="0.654764" stop-color="#E2F6FC" stop-opacity="0.36"/>
<stop offset="1" stop-color="#48B7D6" stop-opacity="0.84"/>
</radialGradient>
<linearGradient id="paint2_linear_1010_1880" x1="69.8452" y1="172.288" x2="1.00322" y2="103.425" gradientUnits="userSpaceOnUse">
<stop stop-color="#42A7C3"/>
<stop offset="0.750282" stop-color="#8ADBF0"/>
</linearGradient>
<radialGradient id="paint3_radial_1010_1880" cx="0" cy="0" r="1" gradientUnits="userSpaceOnUse" gradientTransform="translate(196.639 191.302) rotate(88.7893) scale(199.006 199.066)">
<stop offset="0.654764" stop-color="#E2F6FC" stop-opacity="0.36"/>
<stop offset="1" stop-color="#48B7D6" stop-opacity="0.84"/>
</radialGradient>
<radialGradient id="paint4_radial_1010_1880" cx="0" cy="0" r="1" gradientUnits="userSpaceOnUse" gradientTransform="translate(183.48 189.993) rotate(88.7893) scale(159.205 159.253)">
<stop offset="0.654764" stop-color="#E2F6FC" stop-opacity="0.36"/>
<stop offset="1" stop-color="#48B7D6" stop-opacity="0.84"/>
</radialGradient>
<linearGradient id="paint5_linear_1010_1880" x1="294.571" y1="39.3753" x2="276.849" y2="21.6482" gradientUnits="userSpaceOnUse">
<stop stop-color="#42A7C3"/>
<stop offset="0.750282" stop-color="#8ADBF0"/>
</linearGradient>
</defs>
</svg>
