<svg width="17" height="17" viewBox="0 0 17 17" fill="none" xmlns="http://www.w3.org/2000/svg">
<path d="M12.5234 6.99703C12.5234 5.80123 12.0483 4.65441 11.2028 3.80886C10.3572 2.9633 9.2104 2.48827 8.01461 2.48827C6.81881 2.48827 5.67199 2.9633 4.82644 3.80886C3.98088 4.65441 3.50585 5.80123 3.50585 6.99703C3.50585 8.84662 4.98573 11.2573 8.01461 14.1449C11.0435 11.2573 12.5234 8.84662 12.5234 6.99703ZM8.01461 15.5136C4.34047 12.1741 2.50391 9.33457 2.50391 6.99703C2.50391 5.5355 3.0845 4.13383 4.11795 3.10037C5.15141 2.06692 6.55308 1.48633 8.01461 1.48633C9.47613 1.48633 10.8778 2.06692 11.9113 3.10037C12.9447 4.13383 13.5253 5.5355 13.5253 6.99703C13.5253 9.33457 11.6887 12.1741 8.01461 15.5136Z" fill="black"/>
<path d="M8.01463 8.49997C8.41323 8.49997 8.7955 8.34163 9.07735 8.05978C9.35921 7.77792 9.51755 7.39565 9.51755 6.99705C9.51755 6.59845 9.35921 6.21618 9.07735 5.93433C8.7955 5.65248 8.41323 5.49413 8.01463 5.49413C7.61603 5.49413 7.23376 5.65248 6.95191 5.93433C6.67005 6.21618 6.51171 6.59845 6.51171 6.99705C6.51171 7.39565 6.67005 7.77792 6.95191 8.05978C7.23376 8.34163 7.61603 8.49997 8.01463 8.49997ZM8.01463 9.50191C7.3503 9.50191 6.71318 9.23801 6.24342 8.76826C5.77367 8.2985 5.50977 7.66138 5.50977 6.99705C5.50977 6.33272 5.77367 5.6956 6.24342 5.22585C6.71318 4.75609 7.3503 4.49219 8.01463 4.49219C8.67896 4.49219 9.31608 4.75609 9.78584 5.22585C10.2556 5.6956 10.5195 6.33272 10.5195 6.99705C10.5195 7.66138 10.2556 8.2985 9.78584 8.76826C9.31608 9.23801 8.67896 9.50191 8.01463 9.50191Z" fill="black"/>
</svg>
