<svg width="25" height="25" viewBox="0 0 25 25" fill="none" xmlns="http://www.w3.org/2000/svg">
<g clip-path="url(#clip0_1010_1896)">
<path d="M4.06445 20.303H21.3978" stroke="#B05D33"/>
<path d="M2.49412 21.3709C2.36394 21.4975 2.36394 21.7029 2.49412 21.8295C2.62429 21.9562 2.83535 21.9562 2.96552 21.8295L2.49412 21.3709ZM7.63222 17.289C7.76235 17.1624 7.76235 16.957 7.63222 16.8303C7.50202 16.7037 7.29096 16.7037 7.16079 16.8303L7.63222 17.289ZM2.96552 21.8295L7.63222 17.289L7.16079 16.8303L2.49412 21.3709L2.96552 21.8295Z" fill="#D67B4D"/>
<path d="M2.49412 21.3709C2.36394 21.4975 2.36394 21.7029 2.49412 21.8295C2.62429 21.9562 2.83535 21.9562 2.96552 21.8295L2.49412 21.3709ZM7.63222 17.289C7.76235 17.1624 7.76235 16.957 7.63222 16.8303C7.50202 16.7037 7.29096 16.7037 7.16079 16.8303L7.63222 17.289ZM2.96552 21.8295L7.63222 17.289L7.16079 16.8303L2.49412 21.3709L2.96552 21.8295Z" fill="#D67B4D"/>
<path d="M22.9662 21.3709C23.0963 21.4975 23.0963 21.7029 22.9662 21.8295C22.836 21.9562 22.6249 21.9562 22.4947 21.8295L22.9662 21.3709ZM17.8281 17.289C17.6979 17.1624 17.6979 16.957 17.8281 16.8303C17.9583 16.7037 18.1693 16.7037 18.2995 16.8303L17.8281 17.289ZM22.4947 21.8295L17.8281 17.289L18.2995 16.8303L22.9662 21.3709L22.4947 21.8295Z" fill="#D67B4D"/>
<path d="M22.9662 21.3709C23.0963 21.4975 23.0963 21.7029 22.9662 21.8295C22.836 21.9562 22.6249 21.9562 22.4947 21.8295L22.9662 21.3709ZM17.8281 17.289C17.6979 17.1624 17.6979 16.957 17.8281 16.8303C17.9583 16.7037 18.1693 16.7037 18.2995 16.8303L17.8281 17.289ZM22.4947 21.8295L17.8281 17.289L18.2995 16.8303L22.9662 21.3709L22.4947 21.8295Z" fill="#D67B4D"/>
<path fill-rule="evenodd" clip-rule="evenodd" d="M8.06445 2.95309C8.28665 2.83711 8.79779 2.46598 9.06445 1.90928C9.39779 1.21341 9.73112 0.865479 10.7311 0.865479H12.0645H14.0645C15.0645 0.865479 15.3978 1.21341 15.7311 1.90928C15.9978 2.46598 16.5089 2.83711 16.7311 2.95309H18.7311C19.8357 2.95309 20.7311 3.82432 20.7311 4.89903V13.1674C20.7311 16.7499 17.7463 19.6539 14.0645 19.6539H10.7311C7.04922 19.6539 4.06445 16.7499 4.06445 13.1674V4.89903C4.06445 3.82432 4.95989 2.95309 6.06445 2.95309H8.06445Z" fill="#42A8C3"/>
<path d="M14.0638 2.81149C14.0638 2.73465 14.0151 2.65591 13.9393 2.58033C13.5548 2.19701 12.9476 2.16284 12.3971 2.16284C11.8467 2.16284 11.2177 2.16703 10.8455 2.56164C10.7751 2.63623 10.7305 2.71951 10.7305 2.81149C10.7305 3.13581 10.7305 3.46014 11.1471 3.46014H13.6471C14.0638 3.46014 14.0638 3.13581 14.0638 2.81149Z" fill="white"/>
<path d="M6.73047 6.68134C6.73047 5.96485 7.32742 5.38403 8.0638 5.38403H16.7305C17.4669 5.38403 18.0638 5.96485 18.0638 6.68134V9.27594C18.0638 11.4254 16.2729 13.1678 14.0638 13.1678H10.7305C8.52134 13.1678 6.73047 11.4254 6.73047 9.27594V6.68134Z" fill="white"/>
<mask id="mask0_1010_1896" style="mask-type:alpha" maskUnits="userSpaceOnUse" x="6" y="5" width="13" height="9">
<path d="M6.73047 6.68134C6.73047 5.96485 7.32742 5.38403 8.0638 5.38403H16.7305C17.4669 5.38403 18.0638 5.96485 18.0638 6.68134V9.27594C18.0638 11.4254 16.2729 13.1678 14.0638 13.1678H10.7305C8.52134 13.1678 6.73047 11.4254 6.73047 9.27594V6.68134Z" fill="white"/>
</mask>
<g mask="url(#mask0_1010_1896)">
<path d="M17.0634 6.35701C17.0634 5.57863 15.8412 5.38403 15.0635 5.38403H18.0635L18.0634 13.4922C15.8412 13.6002 9.66345 13.4922 10.7301 13.4922C12.0634 13.4922 14.3968 12.5192 15.3968 11.8705C16.3116 11.2771 17.0635 10.2489 17.0634 9.27594V6.35701Z" fill="#C3D3DB"/>
</g>
</g>
<defs>
<clipPath id="clip0_1010_1896">
<rect width="24" height="24" fill="white" transform="translate(0.730469 0.172607)"/>
</clipPath>
</defs>
</svg>
