<svg width="10" height="10" viewBox="0 0 10 10" fill="none" xmlns="http://www.w3.org/2000/svg">
<path fill-rule="evenodd" clip-rule="evenodd" d="M1.45898 4.29898C1.45898 2.38237 3.0606 0.833252 4.99792 0.833252C6.9407 0.833252 8.54232 2.38237 8.54232 4.29898C8.54232 5.26479 8.19107 6.16143 7.61294 6.92141C6.97515 7.75972 6.18905 8.49011 5.30421 9.06343C5.1017 9.19593 4.91893 9.20593 4.69667 9.06343C3.80679 8.49011 3.02069 7.75972 2.38836 6.92141C1.80981 6.16143 1.45898 5.26479 1.45898 4.29898ZM3.83158 4.4069C3.83158 5.04896 4.35551 5.55395 4.99792 5.55395C5.64075 5.55395 6.16972 5.04896 6.16972 4.4069C6.16972 3.76983 5.64075 3.24027 4.99792 3.24027C4.35551 3.24027 3.83158 3.76983 3.83158 4.4069Z" fill="#42A7C3"/>
</svg>
