<svg width="16" height="17" viewBox="0 0 16 17" fill="none" xmlns="http://www.w3.org/2000/svg">
<path d="M9.46858 15.5H9.49983C9.65427 15.5009 9.80542 15.4553 9.9336 15.3691C10.0618 15.283 10.1611 15.1603 10.2186 15.0169L10.1967 15.0086L10.1967 15.0084C10.141 15.1473 10.0447 15.2662 9.92052 15.3497C9.79624 15.4332 9.64971 15.4774 9.49996 15.4766H9.49983H9.4691M9.46858 15.5L9.46963 15.4766C9.46945 15.4766 9.46928 15.4766 9.4691 15.4766M9.46858 15.5V15.4766H9.4691M9.46858 15.5L9.4691 15.4766M9.4691 15.4766C9.17379 15.4631 8.92874 15.2658 8.83168 14.9846L8.83151 14.9841C8.82949 14.9786 8.82777 14.9735 8.82603 14.9677L8.82617 14.9676L8.82513 14.9652L6.99283 10.6733C6.96895 10.5939 6.9662 10.5096 6.98487 10.4288C7.00363 10.3476 7.04336 10.2727 7.1001 10.2116L9.4691 15.4766ZM14.7645 1.73688C14.8636 1.83635 14.9317 1.9624 14.9607 2.09977C14.9896 2.23715 14.9781 2.37998 14.9276 2.51097L14.9276 2.51111L10.1968 15.0082L7.10012 10.2116L13.5164 3.3291C13.5165 3.32901 13.5166 3.32891 13.5167 3.32881C13.5393 3.30618 13.5572 3.27934 13.5694 3.24981C13.5817 3.22016 13.588 3.18838 13.588 3.15628C13.588 3.12418 13.5817 3.0924 13.5694 3.06275C13.5571 3.0331 13.5391 3.00615 13.5164 2.98346C13.4937 2.96076 13.4668 2.94276 13.4371 2.93048C13.4075 2.91819 13.3757 2.91187 13.3436 2.91187C13.3115 2.91187 13.2797 2.91819 13.25 2.93048C13.2205 2.94271 13.1937 2.9606 13.1711 2.98316C13.171 2.98326 13.1709 2.98336 13.1708 2.98346L6.28512 9.39942C6.22406 9.45617 6.14918 9.49591 6.06797 9.51467C5.98716 9.53334 5.90288 9.5306 5.82347 9.50672L1.53403 7.67504L1.53408 7.67494L1.53191 7.67425L1.51945 7.6703C1.51939 7.67028 1.51933 7.67026 1.51927 7.67024C1.37747 7.62275 1.25378 7.53267 1.16507 7.41228C1.07633 7.29184 1.02693 7.14694 1.02362 6.99737C1.0203 6.84781 1.06324 6.70086 1.14657 6.57661C1.22872 6.45412 1.34617 6.35957 1.48327 6.30546V6.30634L1.49156 6.3032L13.9925 1.57164L13.9925 1.57162C14.1235 1.52184 14.266 1.51095 14.4029 1.54027C14.5399 1.5696 14.6654 1.63787 14.7645 1.73688ZM14.7645 1.73688C14.7645 1.73689 14.7645 1.73691 14.7645 1.73692L14.7811 1.72034L14.7645 1.73688Z" fill="white" stroke="white" stroke-width="0.046875"/>
</svg>
