<svg width="38" height="37" viewBox="0 0 38 37" fill="none" xmlns="http://www.w3.org/2000/svg">
<path d="M19.2596 0.635742C9.04449 0.635742 0.761719 8.61978 0.761719 18.4665C0.761719 28.3132 9.04449 36.2972 19.2596 36.2972C29.4748 36.2972 37.7575 28.3132 37.7575 18.4665C37.7575 8.61978 29.4748 0.635742 19.2596 0.635742ZM28.1494 14.0765C28.1618 14.2635 28.1618 14.4586 28.1618 14.6496C28.1618 20.4924 23.5455 27.2227 15.11 27.2227C12.5087 27.2227 10.0974 26.4943 8.06592 25.2406C8.43753 25.2804 8.79262 25.2963 9.17249 25.2963C11.3196 25.2963 13.2932 24.5958 14.8664 23.4097C12.8514 23.3699 11.1585 22.0963 10.5805 20.3451C11.2865 20.4446 11.9224 20.4446 12.6491 20.2655C11.6116 20.0623 10.6791 19.5192 10.0099 18.7283C9.34078 17.9375 8.97631 16.9477 8.97843 15.9272V15.8715C9.58539 16.2018 10.2997 16.4048 11.0471 16.4327C10.4188 16.0291 9.90356 15.4823 9.54704 14.8408C9.19051 14.1992 9.00371 13.4828 9.0032 12.7551C9.0032 11.9312 9.22617 11.179 9.62668 10.5262C10.7783 11.8927 12.2153 13.0104 13.8443 13.8065C15.4733 14.6026 17.2579 15.0594 19.0821 15.1471C18.4338 12.1421 20.7626 9.71032 23.5621 9.71032C24.8833 9.71032 26.0725 10.2437 26.9107 11.1033C27.947 10.9163 28.938 10.5422 29.8216 10.0407C29.4789 11.0635 28.7605 11.9272 27.8067 12.4725C28.7316 12.377 29.6234 12.1302 30.4492 11.7839C29.8257 12.6675 29.0454 13.4516 28.1494 14.0765Z" fill="#3FA0BB"/>
</svg>
