<svg width="34" height="33" viewBox="0 0 34 33" fill="none" xmlns="http://www.w3.org/2000/svg">
<path d="M33.5866 9.82501C33.568 8.48124 33.3066 7.15082 32.8141 5.89327C32.387 4.83254 31.7347 3.86921 30.8988 3.06482C30.063 2.26043 29.0619 1.63268 27.9597 1.22168C26.6697 0.755681 25.3069 0.503709 23.9293 0.47649C22.1557 0.400197 21.5934 0.378906 17.091 0.378906C12.5887 0.378906 12.0116 0.378906 10.2509 0.47649C8.87395 0.503909 7.5118 0.755878 6.22241 1.22168C5.11999 1.63239 4.11879 2.26004 3.28288 3.06447C2.44696 3.86889 1.79474 4.83238 1.36795 5.89327C0.882741 7.13371 0.621474 8.44484 0.595435 9.77001C0.516156 11.4786 0.492188 12.0198 0.492188 16.3525C0.492188 20.6852 0.492187 21.2388 0.595435 22.9349C0.62309 24.2621 0.883052 25.5715 1.36795 26.8152C1.79546 27.8758 2.44816 28.8389 3.28436 29.643C4.12055 30.4471 5.12184 31.0744 6.22426 31.4851C7.51012 31.9698 8.8725 32.2398 10.2527 32.2835C12.0282 32.3598 12.5906 32.3828 17.0929 32.3828C21.5952 32.3828 22.1723 32.3828 23.933 32.2835C25.3105 32.2574 26.6734 32.006 27.9633 31.5401C29.0653 31.1286 30.0661 30.5007 30.9019 29.6963C31.7377 28.892 32.3902 27.9289 32.8178 26.8685C33.3027 25.6265 33.5627 24.3171 33.5903 22.9882C33.6696 21.2813 33.6936 20.7402 33.6936 16.4057C33.6899 12.073 33.6899 11.523 33.5866 9.82501ZM17.08 24.546C12.3712 24.546 8.55654 20.875 8.55654 16.3436C8.55654 11.8122 12.3712 8.14125 17.08 8.14125C19.3405 8.14125 21.5085 9.00542 23.107 10.5437C24.7054 12.0819 25.6034 14.1682 25.6034 16.3436C25.6034 18.519 24.7054 20.6053 23.107 22.1435C21.5085 23.6818 19.3405 24.546 17.08 24.546ZM25.9427 9.75049C25.6816 9.75072 25.423 9.70141 25.1818 9.60538C24.9405 9.50934 24.7213 9.36847 24.5367 9.19081C24.3521 9.01316 24.2057 8.80222 24.1059 8.57006C24.0061 8.33791 23.9549 8.08909 23.9551 7.83785C23.9551 7.5868 24.0065 7.3382 24.1064 7.10626C24.2062 6.87431 24.3525 6.66356 24.537 6.48604C24.7215 6.30851 24.9405 6.1677 25.1815 6.07162C25.4225 5.97555 25.6808 5.9261 25.9417 5.9261C26.2026 5.9261 26.4609 5.97555 26.702 6.07162C26.943 6.1677 27.162 6.30851 27.3465 6.48604C27.5309 6.66356 27.6773 6.87431 27.7771 7.10626C27.8769 7.3382 27.9283 7.5868 27.9283 7.83785C27.9283 8.8953 27.0397 9.75049 25.9427 9.75049Z" fill="#3FA0BB"/>
</svg>
