<svg width="38" height="37" viewBox="0 0 38 37" fill="none" xmlns="http://www.w3.org/2000/svg">
<path d="M19.1776 0.635742C8.96136 0.635742 0.679688 8.61872 0.679688 18.4665C0.679688 28.3143 8.96136 36.2972 19.1776 36.2972C29.3939 36.2972 37.6755 28.3143 37.6755 18.4665C37.6755 8.61872 29.3939 0.635742 19.1776 0.635742ZM14.6495 25.857H10.9036V14.2373H14.6495V25.857ZM12.7534 12.8108C11.5703 12.8108 10.8054 12.0028 10.8054 11.0036C10.8054 9.98388 11.5935 9.20007 12.8016 9.20007C14.0097 9.20007 14.7497 9.98388 14.7728 11.0036C14.7728 12.0028 14.0097 12.8108 12.7534 12.8108ZM28.3302 25.857H24.5844V19.4175C24.5844 17.9186 24.041 16.9007 22.6864 16.9007C21.6517 16.9007 21.037 17.5898 20.7653 18.2529C20.6651 18.4888 20.6401 18.8231 20.6401 19.1556V25.8551H16.8923V17.9427C16.8923 16.4921 16.8442 15.2792 16.7941 14.2354H20.0485L20.22 15.8495H20.2952C20.7885 15.0917 21.9966 13.9735 24.0179 13.9735C26.4824 13.9735 28.3302 15.5653 28.3302 18.9866V25.857Z" fill="#3FA0BB"/>
</svg>
